<svg xmlns="http://www.w3.org/2000/svg" width="14.667" height="22" viewBox="0 0 14.667 22">
  <g id="bulb" transform="translate(-6.75 -1.125)">
    <path id="Path_8" data-name="Path 8" d="M18.292,32.625H15.358a.733.733,0,0,0,0,1.467h2.933a.733.733,0,0,0,0-1.467Z" transform="translate(-2.742 -10.967)" fill="#e3a056"/>
    <path id="Path_9" data-name="Path 9" d="M18.633,29.25h-4.4a.733.733,0,0,0,0,1.467h4.4a.733.733,0,1,0,0-1.467Z" transform="translate(-2.35 -9.792)" fill="#e3a056"/>
    <path id="Path_10" data-name="Path 10" d="M19.282,3.265A7.339,7.339,0,0,0,6.75,8.458,7.527,7.527,0,0,0,9,13.942l.2.188c.825.772,1.954,1.829,1.954,2.763v1.1a.733.733,0,0,0,.733.733h1.1a.367.367,0,0,0,.367-.367V12.987a.367.367,0,0,0-.235-.342,5.992,5.992,0,0,1-1.2-.658.733.733,0,1,1,.851-1.192,3.305,3.305,0,0,0,1.316.6,3.325,3.325,0,0,0,1.317-.6.733.733,0,0,1,.851,1.192,5.992,5.992,0,0,1-1.2.656.367.367,0,0,0-.235.342v5.373a.367.367,0,0,0,.367.367h1.1a.733.733,0,0,0,.733-.733v-1.1c0-.911,1.117-1.968,1.932-2.74l.225-.214a7.375,7.375,0,0,0,2.242-5.48A7.3,7.3,0,0,0,19.282,3.265Z" fill="#e3a056"/>
  </g>
</svg>
