<svg xmlns="http://www.w3.org/2000/svg" width="26.975" height="18.5" viewBox="0 0 26.975 18.5">
  <path id="group" d="M13.416,5.655c-2.323,0-4.207,2.2-4.207,4.911a5.069,5.069,0,0,0,2.236,4.339L9.9,15.62l-4.1,1.9a1.039,1.039,0,0,0-.594,1.01v4.52a1.052,1.052,0,0,0,.922,1.1h14.6a1.044,1.044,0,0,0,.952-1.1v-4.52a1.039,1.039,0,0,0-.594-1.01l-3.956-1.9-1.644-.779a5.1,5.1,0,0,0,2.137-4.275c0-2.712-1.883-4.911-4.207-4.911ZM6.631,7.382a3.247,3.247,0,0,0-2.394,1.16,4.491,4.491,0,0,0-1,2.8,4.25,4.25,0,0,0,1.844,3.539L.476,17.018A.784.784,0,0,0,0,17.85v3.628c.025.481.274.886.743.892H3.807V18.534a2.5,2.5,0,0,1,1.4-2.26l3.062-1.457a2.941,2.941,0,0,0,.684-.566,6.892,6.892,0,0,1-.624-6.335,3.373,3.373,0,0,0-1.7-.536Zm13.681,0a3.249,3.249,0,0,0-1.754.594,6.948,6.948,0,0,1-.595,6.216,3.144,3.144,0,0,0,.8.684l2.944,1.4a2.54,2.54,0,0,1,1.368,2.26v3.837h3.152a.819.819,0,0,0,.744-.892V17.85a.851.851,0,0,0-.476-.832l-4.55-2.172a4.357,4.357,0,0,0,1.784-3.51,4.471,4.471,0,0,0-1-2.8,3.318,3.318,0,0,0-2.424-1.16Z" transform="translate(0 -5.655)" fill="#64cec0"/>
</svg>
