<svg xmlns="http://www.w3.org/2000/svg" width="20" height="19.112" viewBox="0 0 20 19.112">
  <path id="b5783c601e16032733df8073caacab72" d="M0,7.22A2.079,2.079,0,0,1,.676,5.627,2.479,2.479,0,0,1,2.432,5a2.4,2.4,0,0,1,1.718.618,2.177,2.177,0,0,1,.676,1.66A2.033,2.033,0,0,1,4.17,8.822a2.483,2.483,0,0,1-1.776.637H2.375A2.363,2.363,0,0,1,.656,8.822,2.14,2.14,0,0,1,0,7.22ZM.251,24.112v-12.9H4.537v12.9Zm6.66,0H11.2v-7.2a2.513,2.513,0,0,1,.975-2.153,2.1,2.1,0,0,1,1.38-.454q2.162,0,2.162,2.915v6.892H20V16.718a6.213,6.213,0,0,0-1.351-4.334,4.61,4.61,0,0,0-3.571-1.477A4.381,4.381,0,0,0,11.2,13.05v.039h-.019l.019-.039V11.216H6.911q.039.618.039,3.842T6.911,24.112Z" transform="translate(0 -5)" fill="#dbdbdb"/>
</svg>
