<svg xmlns="http://www.w3.org/2000/svg" width="23" height="22.999" viewBox="0 0 23 22.999">
  <path id="bxs-brain" d="M4.494,20.936a3.767,3.767,0,0,0,3.618,2.509h.063A3.2,3.2,0,0,0,11.307,26a3.115,3.115,0,0,0,1.451-.36,1.141,1.141,0,0,0,.592-1.014V4.181a1.147,1.147,0,0,0-.9-1.13,2.673,2.673,0,0,0-1.7.231A2.5,2.5,0,0,0,9.389,5.556V5.62a3.195,3.195,0,0,0-3.156,5.1,3.836,3.836,0,0,0-1.47,7.017A3.965,3.965,0,0,0,4.494,20.936ZM22.767,10.718a3.195,3.195,0,0,0-3.156-5.1V5.556a2.5,2.5,0,0,0-1.359-2.275,2.668,2.668,0,0,0-1.7-.231,1.148,1.148,0,0,0-.9,1.13V24.625a1.141,1.141,0,0,0,.593,1.014,3.1,3.1,0,0,0,1.45.361,3.2,3.2,0,0,0,3.132-2.556h.064a3.768,3.768,0,0,0,3.618-2.509,3.962,3.962,0,0,0-.269-3.2,3.837,3.837,0,0,0-1.473-7.016Z" transform="translate(-3 -3.002)" fill="#e68a76"/>
</svg>
