<svg xmlns="http://www.w3.org/2000/svg" width="16" height="13" viewBox="0 0 16 13">
  <path id="_47d4f274cf385216e074c8c5c8c14983" data-name="47d4f274cf385216e074c8c5c8c14983" d="M16,3.539a6.839,6.839,0,0,1-1.89.518,3.262,3.262,0,0,0,1.443-1.813,6.555,6.555,0,0,1-2.08.794A3.28,3.28,0,0,0,7.8,5.281a3.377,3.377,0,0,0,.076.748A9.284,9.284,0,0,1,1.114,2.6,3.285,3.285,0,0,0,2.122,6.982a3.24,3.24,0,0,1-1.482-.4v.036A3.3,3.3,0,0,0,3.268,9.837a3.274,3.274,0,0,1-.86.108,2.9,2.9,0,0,1-.621-.056,3.311,3.311,0,0,0,3.065,2.285,6.59,6.59,0,0,1-4.067,1.4A6.144,6.144,0,0,1,0,13.528,9.234,9.234,0,0,0,5.032,15a9.272,9.272,0,0,0,9.336-9.334c0-.145-.005-.285-.012-.424A6.544,6.544,0,0,0,16,3.539Z" transform="translate(0 -2)" fill="#dbdbdb"/>
</svg>
